<svg width="100" height="100" viewBox="0 0 100 100" fill="none" xmlns="http://www.w3.org/2000/svg">
<g clip-path="url(#clip0_1379_61)">
<ellipse cx="49.9674" cy="49.9977" rx="49.9674" ry="49.9977" fill="black"/>
<circle cx="49.9674" cy="49.9976" r="24.9913" fill="url(#paint0_linear_1379_61)"/>
<path d="M36.5617 70.4035C34.9425 64.8125 36.0045 60.7637 37.3311 55.0036C32.5744 58.7301 23.8516 58.7155 23.8516 58.7155C23.8516 58.7155 10.5323 71.0713 10.1296 78.5843L23.3002 87.756L36.5617 70.4035Z" fill="url(#paint1_linear_1379_61)" fill-opacity="0.95"/>
<path d="M41.9615 25.0189C47.0699 27.8041 49.1961 31.4091 52.3507 36.4068C53.0542 30.403 59.2051 24.2143 59.2051 24.2143C59.2051 24.2143 59.8114 6.05077 54.7621 0.475614L38.9804 3.37886L41.9615 25.0189Z" fill="url(#paint2_linear_1379_61)" fill-opacity="0.95"/>
<path d="M75.0815 59.0097C69.5084 60.6793 65.4528 59.6525 59.6847 58.3762C63.451 63.1026 63.5137 71.8305 63.5137 71.8305C63.5137 71.8305 75.9794 85.0479 83.4911 85.3843L92.5403 72.125L75.0815 59.0097Z" fill="url(#paint3_linear_1379_61)" fill-opacity="0.95"/>
</g>
<defs>
<linearGradient id="paint0_linear_1379_61" x1="49.9674" y1="25.0063" x2="49.9674" y2="74.9889" gradientUnits="userSpaceOnUse">
<stop offset="0.5" stop-color="#CCCCCC"/>
<stop offset="1" stop-color="#999999"/>
</linearGradient>
<linearGradient id="paint1_linear_1379_61" x1="25.8487" y1="53.842" x2="22.4271" y2="87.6677" gradientUnits="userSpaceOnUse">
<stop stop-color="white"/>
<stop offset="1" stop-color="#999999"/>
</linearGradient>
<linearGradient id="paint2_linear_1379_61" x1="61.2584" y1="29.0644" x2="39.6389" y2="2.83603" gradientUnits="userSpaceOnUse">
<stop stop-color="white"/>
<stop offset="1" stop-color="#999999"/>
</linearGradient>
<linearGradient id="paint3_linear_1379_61" x1="58.6256" y1="69.8754" x2="92.4605" y2="72.9916" gradientUnits="userSpaceOnUse">
<stop stop-color="white"/>
<stop offset="1" stop-color="#999999"/>
</linearGradient>
<clipPath id="clip0_1379_61">
<rect width="100" height="100" fill="white"/>
</clipPath>
</defs>
</svg>
