<svg width="200" height="250" viewBox="0 0 200 250" fill="none" xmlns="http://www.w3.org/2000/svg">
<ellipse cx="99.9349" cy="117.321" rx="99.9349" ry="99.9955" fill="black"/>
<circle cx="99.9349" cy="117.321" r="49.9826" fill="url(#paint0_linear_1371_17)"/>
<path d="M73.1233 158.133C69.8849 146.951 72.009 138.853 74.6622 127.333C65.1488 134.786 47.7031 134.757 47.7031 134.757C47.7031 134.757 21.0646 159.468 20.2591 174.494L46.6003 192.838L73.1233 158.133Z" fill="url(#paint1_linear_1371_17)" fill-opacity="0.95"/>
<path d="M83.9231 67.363C94.1399 72.9335 98.3923 80.1434 104.702 90.1388C106.109 78.1313 118.41 65.7538 118.41 65.7538C118.41 65.7538 119.623 29.4267 109.524 18.2764L77.9609 24.0829L83.9231 67.363Z" fill="url(#paint2_linear_1371_17)" fill-opacity="0.95"/>
<path d="M150.163 135.345C139.017 138.684 130.906 136.63 119.369 134.078C126.902 143.53 127.027 160.986 127.027 160.986C127.027 160.986 151.959 187.421 166.982 188.094L185.081 161.575L150.163 135.345Z" fill="url(#paint3_linear_1371_17)" fill-opacity="0.95"/>
<path d="M5.99609 249.485V226.518H15.5928C17.1978 226.518 18.5829 226.815 19.7481 227.409C21.0893 228.091 22.1556 229.07 22.9471 230.346C23.7385 231.6 24.1343 232.986 24.1343 234.504C24.1343 236.022 23.7385 237.419 22.9471 238.695C22.1776 239.971 21.1222 240.95 19.7811 241.632C18.6379 242.226 17.2418 242.522 15.5928 242.522H11.9982V249.485H5.99609Z" fill="white"/>
<path d="M43.0057 227.277C44.3249 227.893 45.3582 228.806 46.1057 230.016C46.8752 231.226 47.2599 232.568 47.2599 234.042C47.2599 235.758 46.7323 237.298 45.677 238.662C44.6437 240.004 43.3135 240.895 41.6866 241.335L47.5238 249.485H46.0727L40.4334 241.566L39.3781 241.599H31.1005V249.485H29.8803V226.518H38.6196C39.5869 226.518 40.4114 226.584 41.093 226.716C41.7965 226.826 42.4341 227.013 43.0057 227.277ZM39.7079 240.378C40.8511 240.378 41.9064 240.092 42.8738 239.52C43.8412 238.948 44.6107 238.178 45.1823 237.21C45.7539 236.242 46.0397 235.186 46.0397 234.042C46.0397 232.766 45.699 231.611 45.0174 230.577C44.3578 229.543 43.4344 228.773 42.2472 228.267C41.3898 227.915 40.1806 227.739 38.6196 227.739H31.1005V240.378H39.7079Z" fill="white"/>
<path d="M54.5229 226.518H70.6824V227.739H55.7432V237.045H68.7367V238.266H55.7432V248.264H70.6824V249.485H54.5229V226.518Z" fill="white"/>
<path d="M87.3443 238.497C85.4755 238.123 83.9475 237.716 82.7603 237.276C81.595 236.814 80.6716 236.198 79.9901 235.428C79.3305 234.636 79.0007 233.624 79.0007 232.392C79.0007 231.116 79.3305 229.994 79.9901 229.026C80.6716 228.058 81.617 227.31 82.8262 226.782C84.0574 226.254 85.4755 225.99 87.0805 225.99C88.6195 225.99 90.0266 226.32 91.3017 226.98C92.5989 227.618 93.6212 228.52 94.3687 229.686C95.1162 230.852 95.49 232.183 95.49 233.679H94.2698C94.2698 232.381 93.951 231.237 93.3134 230.247C92.6758 229.257 91.8074 228.498 90.7081 227.97C89.6088 227.42 88.3886 227.145 87.0475 227.145C85.8603 227.145 84.75 227.332 83.7167 227.706C82.6833 228.08 81.8369 228.652 81.1773 229.422C80.5397 230.192 80.2209 231.16 80.2209 232.326C80.2209 233.382 80.5287 234.229 81.1443 234.867C81.7599 235.483 82.5624 235.956 83.5518 236.286C84.5411 236.616 85.9262 236.968 87.7071 237.342C89.5099 237.716 90.906 238.079 91.8953 238.431C92.9067 238.761 93.7531 239.322 94.4347 240.114C95.1382 240.906 95.49 242.017 95.49 243.446C95.49 244.876 95.1052 246.086 94.3357 247.076C93.5882 248.044 92.5879 248.77 91.3347 249.254C90.0815 249.738 88.7184 249.98 87.2454 249.98C85.4205 249.98 83.8156 249.639 82.4305 248.957C81.0454 248.275 79.9791 247.318 79.2316 246.086C78.5061 244.832 78.1433 243.402 78.1433 241.797H79.3635C79.3635 243.204 79.6713 244.436 80.2869 245.492C80.9245 246.548 81.8369 247.373 83.0241 247.967C84.2113 248.539 85.6184 248.825 87.2454 248.825C89.268 248.825 90.939 248.341 92.2581 247.373C93.5992 246.405 94.2698 245.085 94.2698 243.413C94.2698 242.27 93.984 241.39 93.4123 240.774C92.8407 240.158 92.1152 239.718 91.2358 239.454C90.3783 239.168 89.0812 238.849 87.3443 238.497Z" fill="white"/>
<path d="M111.756 238.497C109.887 238.123 108.359 237.716 107.172 237.276C106.007 236.814 105.083 236.198 104.402 235.428C103.742 234.636 103.413 233.624 103.413 232.392C103.413 231.116 103.742 229.994 104.402 229.026C105.083 228.058 106.029 227.31 107.238 226.782C108.469 226.254 109.887 225.99 111.492 225.99C113.031 225.99 114.438 226.32 115.714 226.98C117.011 227.618 118.033 228.52 118.781 229.686C119.528 230.852 119.902 232.183 119.902 233.679H118.682C118.682 232.381 118.363 231.237 117.725 230.247C117.088 229.257 116.219 228.498 115.12 227.97C114.021 227.42 112.8 227.145 111.459 227.145C110.272 227.145 109.162 227.332 108.128 227.706C107.095 228.08 106.249 228.652 105.589 229.422C104.952 230.192 104.633 231.16 104.633 232.326C104.633 233.382 104.941 234.229 105.556 234.867C106.172 235.483 106.974 235.956 107.964 236.286C108.953 236.616 110.338 236.968 112.119 237.342C113.922 237.716 115.318 238.079 116.307 238.431C117.319 238.761 118.165 239.322 118.847 240.114C119.55 240.906 119.902 242.017 119.902 243.446C119.902 244.876 119.517 246.086 118.748 247.076C118 248.044 117 248.77 115.747 249.254C114.493 249.738 113.13 249.98 111.657 249.98C109.832 249.98 108.227 249.639 106.842 248.957C105.457 248.275 104.391 247.318 103.643 246.086C102.918 244.832 102.555 243.402 102.555 241.797H103.775C103.775 243.204 104.083 244.436 104.699 245.492C105.336 246.548 106.249 247.373 107.436 247.967C108.623 248.539 110.03 248.825 111.657 248.825C113.68 248.825 115.351 248.341 116.67 247.373C118.011 246.405 118.682 245.085 118.682 243.413C118.682 242.27 118.396 241.39 117.824 240.774C117.253 240.158 116.527 239.718 115.648 239.454C114.79 239.168 113.493 238.849 111.756 238.497Z" fill="white"/>
<path d="M132.672 246.977C132.672 246.163 132.958 245.47 133.53 244.898C134.123 244.304 134.838 244.007 135.673 244.007C136.509 244.007 137.212 244.304 137.784 244.898C138.378 245.47 138.674 246.163 138.674 246.977C138.674 247.791 138.378 248.495 137.784 249.089C137.212 249.683 136.509 249.98 135.673 249.98C134.86 249.98 134.156 249.683 133.563 249.089C132.969 248.495 132.672 247.791 132.672 246.977Z" fill="white"/>
<path d="M169.583 249.485H151.939V226.518H160.877C162.789 226.518 164.35 226.859 165.56 227.541C166.747 228.201 167.67 229.103 168.33 230.247C168.989 231.391 169.319 232.656 169.319 234.042C169.319 235.758 168.791 237.298 167.736 238.662C166.681 240.004 165.351 240.895 163.746 241.335L169.583 249.485ZM154.017 227.739L162.987 240.279C164.46 239.971 165.68 239.234 166.648 238.068C167.615 236.902 168.099 235.56 168.099 234.042C168.099 232.832 167.802 231.732 167.208 230.742C166.615 229.752 165.779 228.993 164.702 228.465C163.735 227.981 162.471 227.739 160.91 227.739H154.017ZM153.16 228.531V240.378H161.635L153.16 228.531ZM153.16 248.264H167.274L162.46 241.566L161.437 241.599H153.16V248.264Z" fill="white"/>
<path d="M184.992 238.497C183.123 238.123 181.595 237.716 180.408 237.276C179.242 236.814 178.319 236.198 177.637 235.428C176.978 234.636 176.648 233.624 176.648 232.392C176.648 231.116 176.978 229.994 177.637 229.026C178.319 228.058 179.264 227.31 180.474 226.782C181.705 226.254 183.123 225.99 184.728 225.99C186.267 225.99 187.674 226.32 188.949 226.98C190.246 227.618 191.269 228.52 192.016 229.686C192.764 230.852 193.137 232.183 193.137 233.679H191.917C191.917 232.381 191.598 231.237 190.961 230.247C190.323 229.257 189.455 228.498 188.355 227.97C187.256 227.42 186.036 227.145 184.695 227.145C183.508 227.145 182.397 227.332 181.364 227.706C180.331 228.08 179.484 228.652 178.825 229.422C178.187 230.192 177.868 231.16 177.868 232.326C177.868 233.382 178.176 234.229 178.792 234.867C179.407 235.483 180.21 235.956 181.199 236.286C182.188 236.616 183.574 236.968 185.354 237.342C187.157 237.716 188.553 238.079 189.543 238.431C190.554 238.761 191.4 239.322 192.082 240.114C192.786 240.906 193.137 242.017 193.137 243.446C193.137 244.876 192.753 246.086 191.983 247.076C191.236 248.044 190.235 248.77 188.982 249.254C187.729 249.738 186.366 249.98 184.893 249.98C183.068 249.98 181.463 249.639 180.078 248.957C178.693 248.275 177.626 247.318 176.879 246.086C176.153 244.832 175.791 243.402 175.791 241.797H177.011C177.011 243.204 177.319 244.436 177.934 245.492C178.572 246.548 179.484 247.373 180.671 247.967C181.859 248.539 183.266 248.825 184.893 248.825C186.915 248.825 188.586 248.341 189.905 247.373C191.247 246.405 191.917 245.085 191.917 243.413C191.917 242.27 191.631 241.39 191.06 240.774C190.488 240.158 189.763 239.718 188.883 239.454C188.026 239.168 186.728 238.849 184.992 238.497Z" fill="white"/>
<defs>
<linearGradient id="paint0_linear_1371_17" x1="99.9349" y1="67.3384" x2="99.9349" y2="167.304" gradientUnits="userSpaceOnUse">
<stop offset="0.5" stop-color="#CCCCCC"/>
<stop offset="1" stop-color="#999999"/>
</linearGradient>
<linearGradient id="paint1_linear_1371_17" x1="51.6974" y1="125.01" x2="44.854" y2="192.661" gradientUnits="userSpaceOnUse">
<stop stop-color="white"/>
<stop offset="1" stop-color="#999999"/>
</linearGradient>
<linearGradient id="paint2_linear_1371_17" x1="122.517" y1="75.454" x2="79.278" y2="22.9972" gradientUnits="userSpaceOnUse">
<stop stop-color="white"/>
<stop offset="1" stop-color="#999999"/>
</linearGradient>
<linearGradient id="paint3_linear_1371_17" x1="117.251" y1="157.076" x2="184.921" y2="163.308" gradientUnits="userSpaceOnUse">
<stop stop-color="white"/>
<stop offset="1" stop-color="#999999"/>
</linearGradient>
</defs>
</svg>
